<svg xmlns="http://www.w3.org/2000/svg" viewBox="0 0 32 32"><g data-name="48-Note Book"><path d="M8 2h18a2 2 0 0 1 2 2v10h2V4a4 4 0 0 0-4-4H6a4 4 0 0 0-4 4v1H0a2 2 0 0 0 2 2v3H0a2 2 0 0 0 2 2v3H0a2 2 0 0 0 2 2v3H0a2 2 0 0 0 2 2v3H0a2 2 0 0 0 2 2v1a4 4 0 0 0 4 4h9v-2H8zM6 30a2 2 0 0 1-2-2v-1h2zm0-5H4v-3h2zm0-5H4v-3h2zm0-5H4v-3h2zm0-5H4V7h2zm0-5H4V4a2 2 0 0 1 2-2z"/><path d="M25 10V6a1 1 0 0 0-1-1H12a1 1 0 0 0-1 1v4a1 1 0 0 0 1 1h12a1 1 0 0 0 1-1zm-2-1H13V7h10zM11 13h2v2h-2zM15 13h2v2h-2zM24 16a8 8 0 1 0 8 8 8 8 0 0 0-8-8zm0 14a6 6 0 1 1 6-6 6 6 0 0 1-6 6z"/><path d="M25 20h-2v3h-3v2h3v3h2v-3h3v-2h-3v-3z"/></g></svg>