<svg xmlns="http://www.w3.org/2000/svg" viewBox="0 0 48 48"><g data-name="09-clipboard"><path d="M45 48H23a3 3 0 0 1-3-3V13a3 3 0 0 1 3-3h3v2h-3a1 1 0 0 0-1 1v32a1 1 0 0 0 1 1h22a1 1 0 0 0 1-1V13a1 1 0 0 0-1-1h-3v-2h3a3 3 0 0 1 3 3v32a3 3 0 0 1-3 3z"/><path d="M37 14h-6a3 3 0 0 1 0-6h6a3 3 0 0 1 0 6zm-6-4a1 1 0 0 0 0 2h6a1 1 0 0 0 0-2zM37 44H25a1 1 0 0 1-1-1V15h2v27h10.586L42 36.586V15h2v22a1 1 0 0 1-.293.707l-6 6A1 1 0 0 1 37 44z"/><path d="M38 43h-2v-4a3 3 0 0 1 3-3h1v2h-1a1 1 0 0 0-1 1zM29 16h10v2H29zM29 21h10v2H29zM29 26h10v2H29zM29 31h10v2H29zM18 39H3a3 3 0 0 1-3-3V3a3 3 0 0 1 3-3h10a3 3 0 0 1 3 3v2h-2V3a1 1 0 0 0-1-1H3a1 1 0 0 0-1 1v33a1 1 0 0 0 1 1h15z"/><path d="M46 8h-2V7a1 1 0 0 0-1-1H9V4h34a3 3 0 0 1 3 3zM9 35H7a3 3 0 0 1-3-3v-2h2v2a1 1 0 0 0 1 1h2zM11 33h2v2h-2z"/></g></svg>